# xmcd
#
# Track frame offsets: 
#        150
#        15649
#        29648
#        45602
#        64755
#        74523
#        103550
#        115438
#        126246
#        144166
#        158707
#        177507
#        206321
#        235793
#
# Disc length: 3456 seconds
#
# Revision: 0
# Processed by: cddbd v1.4PL0 Copyright (c) Steve Scherf et al.
# Submitted via: ExactAudioCopy v0.90b4
#
DISCID=c30d7e0e
DTITLE=Blues Fuze - The View At Avalon
DYEAR=1998
DGENRE=Blues
TTITLE0=The Hunt is On
TTITLE1=Hands in My Pocket
TTITLE2=Little Dog Blues
TTITLE3=Rock THis House
TTITLE4=Trouble in Mind
TTITLE5=Floating Bridge
TTITLE6=Jazzbo
TTITLE7=Morning Glories
TTITLE8=Room With a View
TTITLE9=Walk Right In
TTITLE10=Latchkey Blues
TTITLE11=Wee Wee Baby
TTITLE12=Born in Chicago
TTITLE13=Too Smart Too Soon
EXTD=
EXTT0=
EXTT1=
EXTT2=
EXTT3=
EXTT4=
EXTT5=
EXTT6=
EXTT7=
EXTT8=
EXTT9=
EXTT10=
EXTT11=
EXTT12=
EXTT13=
PLAYORDER=
